<svg width="1090" height="247" viewBox="0 0 1090 247" fill="none" xmlns="http://www.w3.org/2000/svg">
<path d="M244.871 114.628L216.871 45.6278C214.288 39.2882 209.296 34.2318 202.991 31.5678L134.351 2.56778C128.042 -0.0939846 120.934 -0.140752 114.591 2.43778L45.5905 30.4378C42.4449 31.7096 39.5816 33.5906 37.1653 35.9726C34.749 38.3546 32.8273 41.1907 31.5106 44.3178L2.51059 112.958C-0.141339 119.269 -0.18808 126.373 2.38059 132.718L30.3806 201.718C32.9614 208.057 37.9485 213.117 44.2506 215.788L112.901 244.788C116.023 246.111 119.376 246.803 122.768 246.825C126.159 246.848 129.521 246.199 132.661 244.918L201.661 216.918C208.015 214.32 213.079 209.306 215.741 202.978L244.741 134.328C247.388 128.037 247.435 120.953 244.871 114.628ZM192.871 146.058C192.754 146.048 192.637 146.048 192.521 146.058L190.671 146.328C190.571 146.318 190.47 146.318 190.371 146.328C179.892 148.104 170.167 152.924 162.409 160.188C154.651 167.452 149.202 176.839 146.741 187.178C146.741 187.178 146.741 187.178 146.741 187.238C145.999 190.411 145.54 193.644 145.371 196.898C141.901 218.628 136.691 232.258 123.591 232.258C109.681 232.258 104.711 216.818 101.241 192.608C101.241 192.348 101.161 192.088 101.131 191.828C99.4873 180.692 94.4149 170.346 86.6187 162.227C78.8225 154.108 68.6901 148.621 57.6306 146.528C57.5774 146.522 57.5237 146.522 57.4706 146.528L57.0006 146.458H56.9306C55.5306 146.198 54.1006 146.018 52.6706 145.888H52.3106H52.1006C29.3206 142.648 14.9406 137.888 14.9406 123.688C14.9406 109.198 29.4106 104.458 52.3106 101.348C53.8106 101.218 55.3106 101.028 56.7506 100.768C67.8997 98.8317 78.1613 93.449 86.0917 85.3769C94.0221 77.3047 99.2222 66.9494 100.961 55.7678C104.271 30.9578 108.821 15.0778 123.591 15.0778C137.181 15.0778 142.241 29.1478 145.591 51.4778C145.921 53.7478 146.251 56.1078 146.591 58.5478C146.587 58.5556 146.585 58.5642 146.585 58.5728C146.585 58.5814 146.587 58.5899 146.591 58.5977C148.801 69.2877 154.195 79.0587 162.062 86.6263C169.93 94.1938 179.903 99.2038 190.671 100.998C191.501 101.148 192.331 101.258 193.181 101.358C217.071 104.728 232.251 109.648 232.251 123.728C232.271 137.528 216.921 142.538 192.851 146.008L192.871 146.058Z" fill="url(#paint0_linear_133_246)"/>
<path d="M347.101 189.676C330.434 172.849 322.101 151.473 322.101 125.546C322.101 99.6194 330.434 78.2394 347.101 61.4061C363.767 44.5861 384.824 36.1727 410.271 36.166C435.717 36.1594 456.774 44.5727 473.441 61.4061C490.107 78.2394 498.441 99.6194 498.441 125.546C498.441 151.473 490.107 172.849 473.441 189.676C456.774 206.509 435.717 214.923 410.271 214.916C384.824 214.909 363.767 206.496 347.101 189.676ZM362.441 75.786C350.041 88.506 343.841 105.093 343.841 125.546C343.841 145.999 350.041 162.586 362.441 175.306C374.841 188.026 390.784 194.386 410.271 194.386C429.757 194.386 445.701 188.026 458.101 175.306C470.501 162.586 476.701 145.999 476.701 125.546C476.701 105.093 470.501 88.506 458.101 75.786C445.701 63.066 429.757 56.7027 410.271 56.696C390.784 56.6894 374.841 63.0527 362.441 75.786Z" fill="#010202"/>
<path d="M532.501 194.506C521.221 182.506 515.584 167.569 515.591 149.696C515.597 131.823 521.234 116.886 532.501 104.886C543.768 92.8861 557.454 86.8861 573.561 86.8861C583.714 86.8861 592.331 88.8194 599.411 92.6861C606.491 96.5528 611.564 100.659 614.631 105.006L616.801 108.626H617.041V40.9961H636.371V210.086H617.041V190.766H616.801L614.631 194.146C611.731 198.493 606.731 202.639 599.631 206.586C592.531 210.533 583.834 212.506 573.541 212.506C557.454 212.506 543.774 206.506 532.501 194.506ZM546.631 117.626C538.811 125.999 534.904 136.706 534.911 149.746C534.918 162.786 538.824 173.496 546.631 181.876C554.438 190.256 564.221 194.443 575.981 194.436C587.741 194.429 597.524 190.243 605.331 181.876C613.131 173.503 617.034 162.793 617.041 149.746C617.048 136.699 613.144 125.993 605.331 117.626C597.511 109.246 587.728 105.059 575.981 105.066C564.234 105.073 554.451 109.259 546.631 117.626Z" fill="#010202"/>
<path d="M667.041 62.4964C664.834 60.3146 663.452 57.4344 663.132 54.3474C662.813 51.2604 663.574 48.1582 665.287 45.5702C667 42.9823 669.558 41.0692 672.525 40.1576C675.491 39.2459 678.683 39.3923 681.553 40.5716C684.424 41.751 686.796 43.8902 688.265 46.6241C689.734 49.3579 690.208 52.5169 689.607 55.5616C689.006 58.6064 687.367 61.3481 684.969 63.3186C682.572 65.2892 679.564 66.3664 676.461 66.3664C674.709 66.4008 672.969 66.0751 671.349 65.4094C669.729 64.7437 668.262 63.7522 667.041 62.4964ZM666.801 210.086V89.3064H686.121V210.086H666.801Z" fill="#010202"/>
<path d="M708.101 172.627H728.631C730.211 176.684 732.592 180.38 735.631 183.497C742.871 190.75 752.204 194.374 763.631 194.367C773.931 194.367 781.541 192.677 786.461 189.297C791.381 185.917 793.834 181.584 793.821 176.297C793.844 174.912 793.591 173.536 793.075 172.25C792.56 170.964 791.794 169.793 790.821 168.807C788.821 166.714 785.561 164.86 781.041 163.247C776.521 161.634 772.521 160.387 769.041 159.507C765.581 158.62 760.551 157.534 753.951 156.247C727.371 150.767 714.084 138.93 714.091 120.737C714.091 111.237 718.118 103.237 726.171 96.737C734.224 90.237 745.498 86.977 759.991 86.957C777.991 86.957 792.241 92.997 802.741 105.077C806.901 110.49 810.015 116.632 811.921 123.187H791.441C789.907 119.851 787.779 116.822 785.161 114.247C779.028 108.14 770.654 105.084 760.041 105.077C751.501 105.077 744.938 106.687 740.351 109.907C735.764 113.127 733.468 116.75 733.461 120.777C733.439 122.161 733.694 123.535 734.209 124.819C734.724 126.103 735.489 127.272 736.461 128.257C738.461 130.357 741.724 132.21 746.251 133.817C750.778 135.424 754.778 136.67 758.251 137.557C761.711 138.444 766.744 139.53 773.351 140.817C799.924 146.297 813.211 158.137 813.211 176.337C813.211 186.637 808.878 195.25 800.211 202.177C791.544 209.104 779.388 212.567 763.741 212.567C744.088 212.567 728.951 205.964 718.331 192.757C713.684 186.751 710.213 179.921 708.101 172.627Z" fill="#010202"/>
<path d="M846.741 194.626C834.994 182.713 829.118 167.736 829.111 149.696C829.104 131.656 834.981 116.68 846.741 104.766C858.501 92.8598 873.168 86.9032 890.741 86.8965C908.314 86.8898 922.981 92.7665 934.741 104.526C946.494 116.286 952.371 130.953 952.371 148.526V155.766H848.441C849.727 167.046 854.317 176.307 862.211 183.547C869.942 190.735 880.166 194.634 890.721 194.417C902.634 194.417 912.858 190.793 921.391 183.547C925.097 180.523 928.21 176.837 930.571 172.677H949.901C947.095 180.062 942.915 186.848 937.581 192.677C925.021 205.89 909.401 212.493 890.721 212.486C873.161 212.5 858.501 206.546 846.741 194.626ZM848.921 138.826H931.741C930.364 129.481 925.641 120.953 918.451 114.826C911.051 108.306 901.794 105.046 890.681 105.046C879.567 105.046 870.234 108.306 862.681 114.826C855.366 120.917 850.486 129.436 848.931 138.826H848.921Z" fill="#010202"/>
<path d="M985.16 194.507C973.894 182.507 968.26 167.57 968.26 149.697C968.26 131.823 973.894 116.887 985.16 104.887C996.44 92.8867 1010.13 86.8867 1026.23 86.8867C1036.37 86.8867 1044.94 88.82 1051.95 92.6867C1058.96 96.5534 1064.07 100.74 1067.29 105.247L1069.47 108.867H1069.71V89.3067H1089.03V210.087H1069.74V190.767H1069.5L1067.32 194.147C1064.43 198.493 1059.43 202.64 1052.32 206.587C1045.21 210.533 1036.51 212.507 1026.23 212.507C1010.12 212.507 996.434 206.507 985.16 194.507ZM999.29 117.627C991.484 126 987.58 136.707 987.58 149.747C987.58 162.787 991.484 173.497 999.29 181.877C1007.1 190.257 1016.88 194.443 1028.64 194.437C1040.4 194.43 1050.18 190.243 1057.99 181.877C1065.8 173.503 1069.7 162.793 1069.71 149.747C1069.72 136.7 1065.81 125.993 1057.99 117.627C1050.18 109.247 1040.4 105.06 1028.64 105.067C1016.88 105.073 1007.1 109.26 999.29 117.627Z" fill="#010202"/>
<defs>
<linearGradient id="paint0_linear_133_246" x1="33.0306" y1="49.0278" x2="228.841" y2="210.288" gradientUnits="userSpaceOnUse">
<stop stop-color="#F39B03"/>
<stop offset="0.56" stop-color="#C65002"/>
<stop offset="1" stop-color="#9E1A01"/>
</linearGradient>
</defs>
</svg>
