<svg width="350" height="321" viewBox="0 0 350 321" fill="none" xmlns="http://www.w3.org/2000/svg">
<path d="M45.7467 126.801C47.3303 90.4 61.5005 58.2922 88.4724 33.5605C114.135 10.0298 146.27 -0.960396 180.931 0.571154C181.975 0.621402 183.019 0.684405 184.062 0.76016C185.105 0.83617 186.147 0.924803 187.188 1.02606C188.229 1.12733 189.269 1.24134 190.307 1.36811C191.345 1.49462 192.382 1.63389 193.417 1.78591C194.451 1.93793 195.484 2.10258 196.515 2.27985C197.546 2.45712 198.574 2.64702 199.6 2.84954C200.627 3.05181 201.65 3.2667 202.671 3.49422C203.692 3.72149 204.71 3.96125 205.725 4.21351C206.74 4.46577 207.751 4.7304 208.76 5.00741C209.769 5.28441 210.774 5.57378 211.775 5.87553C212.776 6.17702 213.774 6.49075 214.768 6.81673C215.762 7.1427 216.751 7.48079 217.737 7.831C218.723 8.18095 219.704 8.54302 220.68 8.9172C221.657 9.29138 222.629 9.67743 223.596 10.0753C224.564 10.4732 225.526 10.8829 226.483 11.3042C227.44 11.7256 228.392 12.1586 229.339 12.6032C230.285 13.0478 231.226 13.5039 232.162 13.9717C233.098 14.4393 234.027 14.9183 234.951 15.4088C235.875 15.899 236.793 16.4006 237.704 16.9135C238.616 17.4262 239.521 17.9501 240.42 18.4853C241.318 19.0201 242.211 19.566 243.096 20.1228C243.981 20.6794 244.86 21.2468 245.731 21.825C246.603 22.4032 247.467 22.9919 248.324 23.5911C249.181 24.1905 250.031 24.8002 250.873 25.4203C251.716 26.0404 252.55 26.6706 253.377 27.3111C254.204 27.9516 255.023 28.6021 255.834 29.2627C256.645 29.9231 257.448 30.5934 258.242 31.2737C259.037 31.9537 259.823 32.6434 260.6 33.3428C261.378 34.0422 262.147 34.7509 262.908 35.4689C263.668 36.1869 264.42 36.9142 265.162 37.6509C265.905 38.3873 266.638 39.1327 267.363 39.8872C268.087 40.6417 268.802 41.4048 269.508 42.1767C270.177 42.9059 270.837 43.6425 271.49 44.3866C272.142 45.1303 272.786 45.8815 273.421 46.6401C274.057 47.3986 274.683 48.1644 275.301 48.9372C275.919 49.7098 276.529 50.4893 277.129 51.2757C277.73 52.062 278.321 52.855 278.904 53.6547C279.486 54.4546 280.06 55.2608 280.624 56.0735C281.189 56.8861 281.744 57.705 282.29 58.5302C282.836 59.3553 283.373 60.1866 283.9 61.0239C284.427 61.8613 284.945 62.7045 285.453 63.5533C285.961 64.4022 286.46 65.2568 286.949 66.1171C287.438 66.9772 287.917 67.8428 288.386 68.7138C288.856 69.5849 289.316 70.461 289.765 71.3423C290.215 72.2236 290.655 73.1099 291.085 74.0014C291.514 74.8926 291.934 75.7885 292.343 76.6891C292.753 77.59 293.152 78.4953 293.541 79.4048C293.93 80.3147 294.309 81.2287 294.678 82.1469C295.046 83.0652 295.404 83.9875 295.752 84.9139C296.1 85.8403 296.437 86.7704 296.764 87.7042C297.091 88.6383 297.407 89.5758 297.712 90.5167C298.018 91.4579 298.313 92.4024 298.597 93.3502C298.882 94.2978 299.155 95.2486 299.418 96.2025C299.681 97.1565 299.933 98.1132 300.174 99.0728C300.416 100.032 300.646 100.994 300.866 101.959C301.085 102.924 301.294 103.891 301.492 104.861C301.69 105.83 301.877 106.802 302.053 107.775C302.229 108.749 302.393 109.725 302.548 110.702C302.701 111.679 302.844 112.658 302.976 113.639C303.108 114.62 303.229 115.602 303.339 116.585C303.448 117.568 303.547 118.553 303.634 119.538C303.722 120.524 303.798 121.511 303.864 122.498C303.929 123.485 303.983 124.473 304.026 125.462C304.069 126.45 304.101 127.439 304.122 128.428C290.029 113.956 271.957 105.266 251.603 105.017C230.207 104.756 210.261 113.347 195.047 128.241C191.833 131.387 188.457 134.679 185.696 138.235C189.369 138.973 193.082 139.586 196.683 140.633C208.15 126.543 223.904 117.1 242.087 115.225C260.491 113.328 277.211 118.107 291.571 129.823C294.958 132.586 297.927 135.642 300.851 138.884C302.299 138.797 303.725 138.753 305.175 138.784V141.673C300.253 142.377 295.292 143.363 290.559 144.906C281.129 147.978 271.045 153.402 263.543 159.884C257.022 165.519 251.49 172.112 246.021 178.736C250.226 178.772 254.247 179.155 258.41 179.69C260.172 176.863 262.544 174.305 264.86 171.92C273.923 162.588 285.075 155.599 297.837 152.628C300.08 152.105 302.342 151.814 304.633 151.602L304.629 159.583C301.691 160.115 298.764 160.622 295.893 161.457C287.102 164.012 278.956 169.021 272.369 175.355C270.343 177.303 268.793 179.795 266.708 181.643C270.099 182.691 273.219 184.234 276.509 185.52C278.753 183.488 280.873 181.299 283.228 179.394C289.386 174.413 297.1 170.786 304.757 168.886L304.81 177.706C299.402 178.808 287.597 184.316 284.477 189.119C284.445 189.168 284.415 189.218 284.383 189.269C287.074 191.195 289.719 193.182 292.319 195.229C292.752 194.809 293.195 194.399 293.648 194C294.102 193.602 294.564 193.214 295.036 192.838C295.507 192.462 295.988 192.097 296.478 191.744C296.967 191.391 297.465 191.05 297.971 190.721C298.477 190.392 298.991 190.076 299.512 189.772C300.033 189.468 300.561 189.176 301.097 188.898C301.632 188.62 302.174 188.354 302.722 188.102C303.271 187.85 303.825 187.611 304.385 187.386C304.529 195.468 304.547 203.55 304.438 211.632C290.087 194.708 272.449 184.023 250.135 182.175C232.654 180.727 212.252 186.997 198.838 198.363C195.678 201.017 192.638 203.803 189.718 206.72C187.222 209.219 184.716 212.192 181.866 214.279C179.365 214.713 176.684 214.51 174.15 214.465C170.817 214.391 167.484 214.343 164.15 214.322C159.247 209.865 154.855 204.836 149.86 200.498C135.666 188.172 117.557 180.818 98.6222 181.703C98.1427 181.73 97.6635 181.762 97.1844 181.798C96.7057 181.835 96.2273 181.877 95.7493 181.923C95.2713 181.97 94.7937 182.021 94.3165 182.077C93.8395 182.133 93.3632 182.194 92.8875 182.26C92.4118 182.326 91.9368 182.396 91.4623 182.471C90.9879 182.547 90.5144 182.627 90.0418 182.712C89.5691 182.797 89.0973 182.887 88.6262 182.981C88.1553 183.075 87.6855 183.175 87.2167 183.279C86.7476 183.383 86.2798 183.491 85.8133 183.605C85.3465 183.718 84.8809 183.836 84.4164 183.959C83.9522 184.082 83.4893 184.209 83.0276 184.342C82.5657 184.474 82.1053 184.611 81.6465 184.752C81.1876 184.894 80.7301 185.04 80.2741 185.191C79.818 185.342 79.3635 185.497 78.9105 185.657C78.4578 185.817 78.0066 185.981 77.5569 186.15C77.1075 186.319 76.6597 186.493 76.2136 186.671C75.7675 186.849 75.3233 187.032 74.881 187.219C74.4387 187.406 73.9984 187.598 73.5599 187.794C73.1214 187.99 72.685 188.19 72.2507 188.395C71.8163 188.6 71.384 188.809 70.9537 189.023C70.5234 189.237 70.0954 189.455 69.6697 189.677C69.244 189.899 68.8206 190.125 68.3994 190.356C67.9781 190.587 67.5593 190.822 67.143 191.061C66.7265 191.301 66.3125 191.545 65.9011 191.792C65.4894 192.04 65.0804 192.292 64.6741 192.547C64.2675 192.804 63.8638 193.064 63.4628 193.328C63.0616 193.592 62.6631 193.86 62.2672 194.132C61.8716 194.404 61.4787 194.68 61.0884 194.96C60.6984 195.241 60.3111 195.525 59.9265 195.813C59.5421 196.101 59.1606 196.392 58.7821 196.688C58.4036 196.984 58.0282 197.283 57.6558 197.586C57.2834 197.89 56.914 198.197 56.5478 198.507C52.7344 201.804 49.5271 205.971 45.5841 209.053C45.6243 202.165 45.7513 195.261 45.6231 188.374C49.0634 189.968 52.3668 192.505 54.7002 195.503C57.3206 193.437 59.9758 191.47 62.6961 189.54C58.8954 184.44 51.437 180.199 45.6296 177.848C45.7082 175.028 45.708 172.207 45.6292 169.387C52.8515 171.391 60.0179 175.705 65.437 180.826C67.0202 182.323 68.4094 184.014 69.8862 185.614C73.1035 184.006 76.6233 182.633 80.0679 181.599C71.9496 172.227 64.0153 166.125 52.2646 161.864C50.0945 161.077 47.8326 160.222 45.5872 159.688C45.6713 157.07 45.7198 154.452 45.7325 151.832C59.4421 154.841 71.8658 161.239 81.881 171.192C84.488 173.783 86.8498 176.637 89.174 179.48C92.8095 178.651 97.4986 178.136 101.228 178.509C91.1647 165.689 78.8933 154.28 63.7383 147.816C60.3741 146.381 56.8141 144.967 53.3114 143.907C51.1631 143.257 48.923 142.883 46.7847 142.205C46.4928 142.112 45.1181 141.676 45.177 141.3C45.3404 140.255 47.0181 138.636 47.737 137.875C52.6311 132.703 58.243 127.889 64.3485 124.2C79.8777 114.818 98.7665 112.759 116.215 117.167C130.879 120.872 142.118 128.927 151.412 140.701C154.974 139.59 158.736 138.569 162.438 138.084C154.479 128.173 146.285 120.421 134.998 114.358C134.875 113.819 134.763 113.304 134.86 112.749C134.983 112.05 135.394 111.74 135.929 111.354C138.488 112.545 140.907 114.029 143.32 115.486C144.445 111.491 145.85 107.499 148.186 104.034C152.942 96.9819 160.091 92.0291 168.494 90.4547C176.375 88.9779 184.865 90.5442 191.485 95.1339C199.105 100.416 202.598 107.349 204.236 116.258C207.124 114.428 210.062 112.807 213.122 111.282C216.879 109.848 220.521 108.108 224.33 106.82C228.437 105.431 232.815 104.631 237.047 103.716C239.635 103.146 242.297 102.893 244.924 102.553C243.277 98.039 241.53 93.6116 239.221 89.3877C238.753 88.5426 238.269 87.7069 237.769 86.8805C237.268 86.0543 236.752 85.2381 236.22 84.4318C235.688 83.6253 235.14 82.8295 234.577 82.0444C234.014 81.2593 233.437 80.4854 232.844 79.7228C232.251 78.9601 231.644 78.2092 231.022 77.47C230.4 76.7308 229.764 76.0039 229.114 75.2892C228.464 74.5748 227.8 73.8731 227.123 73.1841C226.445 72.4952 225.755 71.8197 225.052 71.1575C224.348 70.4953 223.632 69.8471 222.904 69.2127C222.176 68.5784 221.435 67.9583 220.682 67.3525C219.93 66.7468 219.166 66.1559 218.391 65.58C217.615 65.0038 216.829 64.4427 216.032 63.8969C215.234 63.3513 214.427 62.8213 213.61 62.3068C212.792 61.7923 211.965 61.2939 211.128 60.8116C210.291 60.3293 209.445 59.8633 208.59 59.4136C207.735 58.9641 206.871 58.5313 205.999 58.115C205.437 57.8564 204.872 57.6048 204.304 57.3602C203.735 57.1158 203.164 56.8783 202.59 56.6478C202.016 56.4174 201.439 56.1941 200.859 55.9778C200.279 55.7618 199.697 55.5529 199.112 55.3511C198.527 55.1494 197.939 54.9549 197.35 54.7677C196.76 54.5804 196.168 54.4005 195.574 54.2278C194.98 54.0554 194.383 53.8902 193.785 53.7323C193.187 53.5745 192.587 53.4241 191.984 53.2813C191.383 53.1382 190.779 53.0026 190.174 52.8746C189.568 52.7465 188.961 52.626 188.353 52.513C187.745 52.4 187.135 52.2945 186.524 52.1966C185.913 52.0986 185.301 52.0084 184.688 51.9257C184.075 51.8428 183.461 51.7676 182.845 51.7C182.23 51.6324 181.615 51.5724 180.998 51.5202C180.382 51.4679 179.765 51.4231 179.147 51.3859C178.529 51.3489 177.911 51.3194 177.293 51.2975C176.675 51.2758 176.056 51.2618 175.437 51.2554C174.819 51.2488 174.2 51.2499 173.581 51.2588C172.963 51.2675 172.344 51.284 171.726 51.3082C171.107 51.3324 170.49 51.3642 169.872 51.4035C169.255 51.443 168.638 51.4901 168.021 51.5446C167.405 51.5992 166.79 51.6616 166.175 51.7317C165.56 51.8016 164.946 51.879 164.334 51.964C163.721 52.0492 163.109 52.1419 162.498 52.2421C161.888 52.3424 161.278 52.4501 160.671 52.5654C160.062 52.6807 159.456 52.8035 158.851 52.9339C158.247 53.0642 157.643 53.2021 157.042 53.3475C156.44 53.4926 155.841 53.6452 155.243 53.8054C154.645 53.9653 154.05 54.1328 153.456 54.3078C152.863 54.4825 152.272 54.6646 151.683 54.8541C151.093 55.0436 150.507 55.2403 149.923 55.4441C149.339 55.6482 148.757 55.8593 148.178 56.0777C147.621 56.2848 147.066 56.4987 146.514 56.7193C145.962 56.9402 145.412 57.1677 144.865 57.4019C144.319 57.636 143.775 57.8768 143.234 58.1242C142.694 58.3719 142.156 58.6261 141.622 58.8867C141.087 59.1474 140.556 59.4146 140.028 59.6883C139.5 59.962 138.976 60.242 138.455 60.5285C137.934 60.8149 137.416 61.1077 136.903 61.4069C136.389 61.7061 135.878 62.0116 135.372 62.3233C134.865 62.6349 134.363 62.9528 133.864 63.2767C133.366 63.6009 132.871 63.9309 132.381 64.2669C131.89 64.603 131.404 64.9451 130.921 65.293C130.439 65.6412 129.961 65.9951 129.488 66.3547C129.014 66.7144 128.545 67.0799 128.081 67.4512C127.616 67.8224 127.156 68.1991 126.701 68.5815C126.246 68.9641 125.795 69.3521 125.349 69.7457C124.903 70.1393 124.463 70.5382 124.027 70.9425C123.59 71.3468 123.159 71.7563 122.733 72.171C122.307 72.586 121.887 73.0061 121.471 73.4313C121.055 73.8562 120.645 74.2864 120.239 74.7218C119.834 75.157 119.434 75.5971 119.04 76.0422C118.646 76.487 118.257 76.9367 117.873 77.3912C117.49 77.846 117.112 78.3052 116.74 78.769C116.368 79.2327 116.001 79.701 115.641 80.1739C115.28 80.6465 114.925 81.1236 114.576 81.6052C114.227 82.0865 113.884 82.5721 113.547 83.0621C113.21 83.5518 112.879 84.0458 112.554 84.5439C112.229 85.0418 111.91 85.5437 111.597 86.0495C111.284 86.5553 110.978 87.0648 110.677 87.5779C110.377 88.0911 110.083 88.608 109.796 89.1286C109.508 89.649 109.227 90.1729 108.952 90.7004C108.677 91.2278 108.409 91.7585 108.147 92.2923C107.886 92.8262 107.63 93.3632 107.382 93.9035C105.979 96.9681 104.51 100.435 103.907 103.752C106.415 104.041 108.927 104.305 111.419 104.716C111.279 105.399 111.151 105.645 110.567 106.029C110.497 106.075 110.425 106.115 110.354 106.158C109.748 106.065 109.14 105.978 108.532 105.899C107.924 105.82 107.314 105.748 106.704 105.684C106.094 105.619 105.483 105.562 104.871 105.513C104.26 105.463 103.648 105.421 103.035 105.386C102.422 105.351 101.81 105.323 101.196 105.303C100.583 105.283 99.9697 105.27 99.3561 105.265C98.7426 105.259 98.1291 105.261 97.5154 105.271C96.902 105.28 96.2887 105.297 95.6755 105.321C95.0626 105.345 94.4499 105.377 93.8375 105.416C93.2251 105.454 92.6133 105.5 92.0022 105.554C91.3908 105.608 90.7803 105.669 90.1707 105.737C89.5608 105.805 88.952 105.881 88.3442 105.964C87.7361 106.047 87.1292 106.137 86.5234 106.235C85.9176 106.332 85.3131 106.437 84.7099 106.55C84.1067 106.662 83.5048 106.781 82.9044 106.908C82.304 107.034 81.7052 107.168 81.1081 107.309C80.511 107.45 79.9157 107.598 79.3222 107.754C78.7286 107.909 78.137 108.072 77.5473 108.241C76.9576 108.411 76.3701 108.588 75.7847 108.771C75.1993 108.955 74.6162 109.146 74.0355 109.344C73.4547 109.542 72.8763 109.746 72.3004 109.958C71.7245 110.17 71.1512 110.389 70.5806 110.614C70.01 110.84 69.4423 111.072 68.8773 111.311C68.3121 111.551 67.7499 111.797 67.1908 112.049C66.6317 112.302 66.0758 112.562 65.5231 112.828C64.9701 113.094 64.4206 113.367 63.8745 113.646C63.3281 113.925 62.7852 114.211 62.2458 114.504C61.7063 114.796 61.1705 115.095 60.6385 115.401C60.1062 115.706 59.5777 116.018 59.053 116.336C58.5283 116.654 58.0076 116.978 57.4909 117.309C56.9738 117.639 56.4609 117.976 55.9521 118.319C55.4435 118.662 54.9389 119.011 54.4385 119.366C51.3112 121.598 48.612 124.263 45.7467 126.801Z" fill="#FFC900"/>
<path d="M168.413 140.794C173.371 140.178 178.997 140.66 183.922 141.375C203.079 144.156 218.978 153.561 232.416 167.197C236.038 170.874 239.392 174.583 242.475 178.728C238.448 178.801 234.575 179.309 230.625 180.047C229.35 178.441 228.048 176.859 226.718 175.299C214.927 161.743 197.462 151.692 179.353 150.454C174.858 150.265 170.395 150.192 165.916 150.69C146.021 152.901 129.255 164.438 116.985 179.755C113.049 178.978 109.005 178.686 105.006 178.467C105.825 177.328 106.678 176.216 107.566 175.13C119.816 160.197 136.145 147.875 155.038 142.996C159.471 141.852 163.863 141.251 168.413 140.794Z" fill="white"/>
<path d="M170.148 157.986C173.497 157.504 177.59 157.772 180.946 158.107C197.153 159.726 211.456 169.45 221.59 181.766C218.449 183.121 215.366 184.657 212.215 185.967C202.013 174.301 191.83 169.135 176.292 167.526C173.687 167.376 171.086 167.44 168.491 167.715C155.06 169.193 143.711 175.901 135.301 186.375C132.073 184.836 128.694 183.217 125.296 182.114C125.393 181.992 125.488 181.868 125.59 181.75C137.148 168.301 152.23 159.203 170.148 157.986Z" fill="white"/>
<path d="M245.936 122.406C250.003 121.998 254.638 122.541 258.689 123.102C261.893 123.546 265.205 124.261 268.261 125.327C276.125 128.07 286.712 134.244 291.696 140.873C288.156 141.94 284.65 143.209 281.19 144.51C279.645 143.285 278.226 141.953 276.61 140.806C267.299 134.201 258.057 132.034 246.784 132.28C246.256 132.31 245.73 132.35 245.205 132.401C233.095 133.562 221.541 139.005 213.735 148.5C211.01 146.539 207.821 145.083 204.737 143.775C205.001 143.409 205.279 143.055 205.571 142.711C216.197 130.224 229.698 123.726 245.936 122.406Z" fill="white"/>
<path d="M93.8317 122.959C95.9938 122.637 98.4722 122.777 100.665 122.814C117.345 123.095 132.158 131.32 143.522 143.081C140.216 144.643 136.968 146.269 133.789 148.078C126.443 140.367 118.407 135.443 107.922 133.276C105.264 132.811 102.586 132.55 99.8878 132.493C87.5839 132.202 75.2426 136.38 66.2967 144.93C62.672 143.608 59.0836 142.259 55.4176 141.048C58.0353 138.71 60.5562 136.279 63.3771 134.181C72.2005 127.619 82.9442 123.979 93.8317 122.959Z" fill="white"/>
<path d="M171.63 175.011C173.936 174.835 176.354 174.987 178.645 175.296C188.941 176.684 198.267 181.747 204.603 190.036C201.65 191.395 198.889 193.696 196.182 195.509C189.997 188.782 184.149 185.562 174.942 184.901C172.632 184.869 170.349 184.911 168.069 185.318C161.394 186.51 154.414 190.418 150.521 196.061C147.649 194.146 144.883 192.087 141.98 190.212C150.364 180.997 158.89 175.814 171.63 175.011Z" fill="white"/>
<path d="M248.12 139.796C257.3 139.622 266.548 142.434 273.627 148.362C270.719 150.174 267.861 152.05 265.137 154.13C257.802 149.991 250.641 148.613 242.371 150.407C236.886 152.006 232.681 154.838 228.495 158.669C226.154 156.386 223.268 154.406 220.579 152.55C227.754 144.759 237.658 140.431 248.12 139.796Z" fill="white"/>
<path d="M96.1594 140.198C96.7895 140.128 97.4606 140.127 98.0942 140.13C109.266 140.188 118.954 144.478 126.787 152.387C123.978 154.395 121.342 156.584 118.734 158.844C115.189 155.309 111.762 152.861 107.03 151.169C106.526 151.003 106.016 150.854 105.502 150.721C97.1775 148.553 90.1285 150.413 82.8665 154.656C79.7968 152.608 76.7077 150.59 73.5992 148.601C80.5414 144.002 87.7515 140.763 96.1594 140.198Z" fill="white"/>
<path d="M241.803 191.847C245.125 191.47 248.867 191.676 252.166 192.087C265.391 193.735 277.219 199.203 287.116 208.114C289.372 210.146 291.552 212.166 293.43 214.565C289.95 214.525 286.005 214.932 282.582 214.313C271.501 205.289 262.337 200.922 248.027 199.439C236.978 199.186 226.203 201.377 216.698 207.243C213.2 209.401 209.955 212.008 206.689 214.498C203.101 214.427 199.501 214.278 195.914 214.418C207.911 200.979 223.849 193.061 241.803 191.847Z" fill="#FFC900"/>
<path d="M97.9659 191.272C99.2338 191.118 100.605 191.172 101.884 191.168C106.066 191.156 110.378 191.813 114.458 192.726C129.819 196.165 139.629 203.752 150.538 214.554C148.042 214.399 140.752 214.794 138.962 214.155C136.958 213.439 134.907 211.144 133.193 209.855C125.268 203.895 116.629 200.007 106.645 199.154C95.1798 197.747 81.5395 201.951 72.1395 208.276C69.5042 210.05 67.3529 212.316 64.8113 214.178L64.6097 214.323C61.125 214.478 57.6162 214.474 54.1277 214.544C54.4353 214.142 54.7502 213.747 55.0723 213.357C65.8037 200.367 81.3521 192.901 97.9659 191.272Z" fill="#FFC900"/>
<path d="M99.1042 208.872C107.268 208.275 115.366 210.039 122.27 214.51L104.409 214.504L80.9393 214.591C86.3531 210.916 92.6789 209.419 99.1042 208.872Z" fill="#FFC900"/>
<path d="M240.486 209.245C249.24 208.105 257.986 210.585 265.672 214.597C260.567 214.887 255.269 214.393 250.135 214.44C241.359 214.519 232.582 214.543 223.805 214.51C229.319 211.8 234.285 209.836 240.486 209.245Z" fill="#FFC900"/>
<path d="M64.9195 261.748C64.8515 270.52 61.8935 278.034 56.0455 284.29C50.0615 290.682 42.6835 293.878 33.9115 293.878C24.7315 293.878 17.2515 290.784 11.4715 284.596C5.69152 278.408 2.80152 270.86 2.80152 261.952C2.80152 252.432 5.48752 244.544 10.8595 238.288C16.6395 231.488 24.3235 228.088 33.9115 228.088C43.7715 228.088 51.5235 231.318 57.1675 237.778C62.4715 243.83 65.0555 251.82 64.9195 261.748ZM51.2515 261.544C51.2515 255.288 49.7895 250.358 46.8655 246.754C43.6695 242.878 39.2495 240.94 33.6055 240.94C28.2335 240.94 23.9835 243.082 20.8555 247.366C17.9995 251.242 16.5715 256.002 16.5715 261.646C16.5715 266.882 18.1015 271.37 21.1615 275.11C24.4935 279.054 28.7435 281.026 33.9115 281.026C39.0795 281.026 43.2955 279.054 46.5595 275.11C49.6875 271.506 51.2515 266.984 51.2515 261.544ZM111.412 229.108C111.004 232.712 110.8 240.804 110.8 253.384V257.362C110.8 265.59 110.834 272.662 110.902 278.578C110.97 284.426 111.072 289.186 111.208 292.858H104.374L103.15 289.9C101.042 292.212 97.7436 293.436 93.2556 293.572C87.0676 293.776 82.0356 292.042 78.1596 288.37C74.3516 284.562 72.4476 279.53 72.4476 273.274C72.4476 270.214 72.9236 267.426 73.8756 264.91C74.8276 262.394 76.1536 260.252 77.8536 258.484C79.6216 256.648 81.7296 255.254 84.1776 254.302C86.6936 253.282 89.4816 252.772 92.5416 252.772C96.2816 252.772 99.3076 253.724 101.62 255.628L101.518 253.282C101.518 251.106 101.484 248.42 101.416 245.224C101.416 242.028 101.382 238.254 101.314 233.902C101.246 233.154 101.178 232.406 101.11 231.658C101.11 230.842 101.076 229.992 101.008 229.108H111.412ZM101.518 280.72C101.518 278.816 101.518 276.606 101.518 274.09C101.518 271.574 101.484 268.718 101.416 265.522C99.2396 263.074 96.4516 261.85 93.0516 261.85C89.7876 261.85 87.1356 262.904 85.0956 265.012C83.1236 267.12 82.1036 269.84 82.0356 273.172C81.9676 276.844 83.0556 279.7 85.2996 281.74C87.3396 283.576 89.9576 284.494 93.1536 284.494C96.4856 284.494 99.2736 283.236 101.518 280.72ZM131.48 240.838C131.48 242.198 130.902 243.422 129.746 244.51C128.658 245.598 127.366 246.142 125.87 246.142C124.374 246.21 123.082 245.7 121.994 244.612C120.974 243.524 120.464 242.266 120.464 240.838C120.464 239.342 121.008 238.05 122.096 236.962C123.184 235.806 124.442 235.228 125.87 235.228C127.366 235.228 128.658 235.806 129.746 236.962C130.902 238.05 131.48 239.342 131.48 240.838ZM130.97 293.266H121.178C121.79 278.918 121.79 265.658 121.178 253.486H130.97C130.426 266.882 130.426 280.142 130.97 293.266ZM162.264 292.552C159.204 293.912 155.838 294.422 152.166 294.082C145.774 293.47 141.116 292.756 138.192 291.94L138.09 281.842L146.046 284.29C149.106 285.174 151.826 285.616 154.206 285.616C157.062 285.616 158.592 284.766 158.796 283.066C159.136 280.482 157.096 278.204 152.676 276.232C151.452 275.756 149.956 275.144 148.188 274.396C146.488 273.648 144.482 272.73 142.17 271.642C139.45 269.738 138.09 267.12 138.09 263.788C138.09 260.048 139.382 257.294 141.966 255.526C144.006 254.166 146.318 253.316 148.902 252.976C149.378 252.908 150.194 252.874 151.35 252.874C152.506 252.806 154.002 252.772 155.838 252.772C156.858 252.772 158.524 253.01 160.836 253.486C163.556 254.098 164.95 254.404 165.018 254.404V263.584C164.338 263.312 163.658 263.074 162.978 262.87C162.366 262.666 161.72 262.462 161.04 262.258C158.456 261.374 156.076 260.932 153.9 260.932C150.5 260.796 148.8 261.646 148.8 263.482C148.936 264.706 149.752 265.658 151.248 266.338C152.2 266.678 153.152 267.018 154.104 267.358C155.056 267.698 156.008 268.038 156.96 268.378C165.256 271.642 169.404 276.232 169.404 282.148C169.404 286.976 167.024 290.444 162.264 292.552ZM214.004 276.028H185.036C185.308 281.944 188.436 284.902 194.42 284.902C195.168 284.902 196.018 284.8 196.97 284.596C200.302 284.052 202.818 282.93 204.518 281.23L210.638 289.186C205.402 292.11 200.608 293.674 196.256 293.878C189.524 294.218 184.22 292.586 180.344 288.982C176.468 285.31 174.53 279.972 174.53 272.968C174.53 267.392 176.502 262.632 180.446 258.688C184.322 254.812 189.048 252.806 194.624 252.67C197.888 252.67 200.744 253.214 203.192 254.302C205.708 255.39 207.782 256.954 209.414 258.994C211.114 261.034 212.338 263.516 213.086 266.44C213.902 269.296 214.208 272.492 214.004 276.028ZM203.498 268.48C201.798 264.128 198.942 261.952 194.93 261.952C190.238 262.088 187.484 264.264 186.668 268.48H203.498ZM258.127 291.43C256.427 293.334 254.421 294.286 252.109 294.286C247.893 294.286 245.377 292.62 244.561 289.288C240.549 292.484 236.129 294.082 231.301 294.082C224.161 294.082 220.591 290.41 220.591 283.066C220.591 277.694 222.937 273.886 227.629 271.642C230.485 270.282 236.027 269.058 244.255 267.97V265.318C244.255 262.53 242.385 261.136 238.645 261.136C237.217 261.136 235.721 261.306 234.157 261.646C232.593 261.986 231.097 262.496 229.669 263.176C228.241 263.788 226.881 264.57 225.589 265.522C224.365 266.406 223.345 267.392 222.529 268.48V258.994C225.861 255.118 230.655 252.976 236.911 252.568C241.671 252.296 245.513 252.976 248.437 254.608C251.837 256.58 253.537 259.674 253.537 263.89V284.902C253.537 286.466 254.115 287.248 255.271 287.248C256.019 287.248 256.971 286.568 258.127 285.208V291.43ZM244.255 282.352L244.153 275.314C242.249 275.586 240.583 275.858 239.155 276.13C237.795 276.402 236.673 276.674 235.789 276.946C231.981 278.034 230.009 279.666 229.873 281.842C229.737 284.834 231.233 286.33 234.361 286.33C235.993 286.33 237.795 285.922 239.767 285.106C241.739 284.29 243.235 283.372 244.255 282.352ZM322.974 292.858H308.184C304.24 281.842 302.268 276.334 302.268 276.334H282.276C281.392 278.51 280.44 280.992 279.42 283.78C278.468 286.5 277.414 289.526 276.258 292.858H262.488C263.984 289.526 266.738 282.522 270.75 271.846C274.762 261.102 280.134 246.584 286.866 228.292H298.392C300.5 234.072 302.472 239.478 304.308 244.51C306.212 249.474 307.946 254.098 309.51 258.382C317.194 278.986 321.682 290.478 322.974 292.858ZM298.902 264.094C297.882 261.17 296.862 258.28 295.842 255.424C294.822 252.568 293.802 249.712 292.782 246.856C288.566 258.62 286.424 264.366 286.356 264.094H298.902ZM344.676 229.312C344.336 230.604 344.064 232.338 343.86 234.514C343.724 236.622 343.622 239.206 343.554 242.266V261.034V279.598C343.69 286.058 344.03 290.478 344.574 292.858H329.58C330.26 290.342 330.668 285.956 330.804 279.7V260.83C330.804 254.642 330.804 249.644 330.804 245.836C330.804 241.96 330.77 239.24 330.702 237.676C330.634 236.112 330.498 234.65 330.294 233.29C330.158 231.93 329.92 230.604 329.58 229.312H344.676Z" fill="#030303"/>
</svg>
