<?xml version="1.0" encoding="utf-8"?>
<svg xmlns="http://www.w3.org/2000/svg" fill="none" height="184" viewBox="0 0 190 184" width="190">
<path d="M93.5979 1.34771C45.2715 -2.96256 6.55196 33.2364 2.2782 85.6901C-1.63029 133.176 36.1395 175.366 84.4294 179.712C132.719 184.059 171.804 143.185 176.845 95.9544C182.215 45.1444 141.888 5.6945 93.5979 1.34771Z" fill="#00F6FF"/>
<path d="M60.2484 163.932C56.0372 169.412 50.7182 173.942 44.6382 177.228C38.5582 180.513 31.8539 182.48 24.9625 183C28.391 177.802 30.7201 171.958 31.8068 165.828C32.8936 159.697 32.7149 153.408 31.2818 147.349C40.2676 152.718 51.2625 158.417 60.2484 163.932Z" fill="#00F6FF"/>
<path d="M104.556 2.99146C83.9519 3.52028 64.2898 11.7343 49.4324 26.02C34.575 40.3057 25.5961 59.6305 24.2597 80.1984C22.9233 100.766 29.3259 121.09 42.2098 137.179C55.0936 153.267 73.5275 163.956 93.8904 167.147V109.433H72.9234V85.544H93.8904V67.2802C93.8904 46.569 106.237 35.1358 125.085 35.1358C131.277 35.22 137.455 35.7572 143.568 36.743V57.089H133.158C122.894 57.089 119.716 63.4448 119.716 69.9832V85.471H142.618L138.966 109.36H119.716V167.074C128.655 165.627 137.294 162.714 145.285 158.453C162.991 142.09 174.154 119.856 176.699 95.8814C181.813 49.0529 147.805 11.8312 104.556 2.99146Z" fill="#3B42C4"/>
<path d="M106.638 2.91852C85.6848 2.68383 65.4247 10.4193 49.9594 24.5591C34.494 38.6989 24.9788 58.1866 23.34 79.0773C21.7012 99.968 28.0613 120.701 41.1326 137.079C54.204 153.458 73.0101 164.258 93.744 167.293V109.433H72.7771V85.5441H93.744V67.2803C93.744 46.5691 106.091 35.1359 124.939 35.1359C131.131 35.2201 137.309 35.7573 143.422 36.7431V57.0891H133.012C122.747 57.0891 119.569 63.4449 119.569 69.9833V85.4711H142.472L138.82 109.36H119.569V167.074C140.004 163.714 158.432 152.804 171.205 136.503C183.977 120.202 190.162 99.6992 188.536 79.0543C186.91 58.4094 177.591 39.1279 162.423 25.0278C147.256 10.9277 127.347 3.0371 106.638 2.91852Z" stroke="black" stroke-miterlimit="10" stroke-width="1.5"/>
</svg>