<?xml version="1.0" encoding="utf-8"?>
<svg xmlns="http://www.w3.org/2000/svg" fill="none" height="184" viewBox="0 0 190 184" width="190">
<path d="M95.1133 1.35331C46.7495 -2.99686 7.99992 33.2667 3.72284 85.7245C2.74849 99.2434 4.97852 112.801 10.2317 125.296C15.485 137.791 23.6131 148.869 33.9549 157.63C33.989 166.643 31.37 175.466 26.4243 183C36.8981 182.232 46.8513 178.133 54.8283 171.302C64.5951 175.972 75.1185 178.856 85.9011 179.82C134.265 184.17 173.344 143.264 178.388 95.9967C183.799 45.1474 143.441 5.66691 95.1133 1.35331Z" fill="#E5BDBE"/>
<path d="M110.65 55.7122C104.611 55.7049 98.7063 57.489 93.6817 60.8386C88.6572 64.1883 84.7392 68.953 82.4233 74.5299C80.1073 80.1069 79.4977 86.2454 80.6713 92.169C81.845 98.0925 84.7493 103.535 89.0167 107.807C93.2842 112.08 98.7229 114.991 104.645 116.171C110.567 117.352 116.707 116.75 122.286 114.441C127.866 112.131 132.635 108.219 135.991 103.199C139.347 98.1781 141.138 92.2751 141.138 86.2364C141.138 78.1472 137.927 70.3888 132.211 64.6654C126.494 58.9421 118.739 55.7219 110.65 55.7122Z" stroke="black" stroke-miterlimit="10" stroke-width="0.5"/>
<path d="M185.115 49.2416C185.047 43.4493 183.983 37.7118 181.971 32.2797C180.499 28.2993 178.15 24.7011 175.099 21.7515C172.149 18.761 168.563 16.4744 164.607 15.0618C159.166 13.0372 153.414 11.9734 147.609 11.918C137.958 11.4427 135.07 11.3696 110.65 11.3696C86.2307 11.3696 83.3062 11.3696 73.6554 11.918C67.8612 11.968 62.1205 13.032 56.6933 15.0618C52.6743 16.4543 49.0244 18.7418 46.0189 21.7515C42.9669 24.6934 40.6286 28.2947 39.1829 32.2797C37.171 37.7118 36.1076 43.4493 36.0392 49.2416C35.6005 58.8924 35.4907 61.7803 35.4907 86.2363C35.4907 110.692 35.4908 113.544 36.0392 123.194C36.1076 128.987 37.171 134.724 39.1829 140.156C40.6286 144.141 42.9669 147.743 46.0189 150.684C48.9674 153.729 52.5668 156.066 56.5471 157.52C61.9757 159.55 67.7142 160.626 73.5093 160.701C83.1601 161.139 86.048 161.213 110.504 161.213C134.96 161.213 137.812 161.213 147.462 160.701C153.269 160.62 159.018 159.544 164.461 157.52C168.431 156.065 172.018 153.728 174.953 150.684C178.004 147.735 180.353 144.137 181.825 140.156C183.837 134.724 184.901 128.987 184.969 123.194C185.408 113.544 185.481 110.656 185.481 86.2363C185.481 61.8169 185.554 58.929 185.115 49.2416ZM110.65 133.32C101.349 133.328 92.2551 130.576 84.5185 125.413C76.7819 120.25 70.7507 112.908 67.188 104.317C63.6253 95.725 62.6913 86.2696 64.5041 77.147C66.3169 68.0244 70.7949 59.6444 77.3717 53.0676C83.9486 46.4908 92.3285 42.0127 101.451 40.1999C110.574 38.3872 120.029 39.3212 128.621 42.8839C137.213 46.4466 144.555 52.4778 149.717 60.2143C154.88 67.9508 157.632 77.045 157.625 86.346C157.596 98.7853 152.634 110.705 143.828 119.491C135.021 128.277 123.09 133.211 110.65 133.211V133.32ZM159.343 48.3643C157.174 48.3643 155.054 47.7211 153.25 46.5161C151.447 45.311 150.041 43.5982 149.211 41.5943C148.381 39.5904 148.164 37.3853 148.587 35.258C149.01 33.1306 150.055 31.1765 151.588 29.6428C153.122 28.1091 155.076 27.0646 157.204 26.6414C159.331 26.2183 161.536 26.4355 163.54 27.2655C165.544 28.0956 167.257 29.5012 168.462 31.3047C169.667 33.1082 170.31 35.2285 170.31 37.3975C170.31 40.3061 169.155 43.0955 167.098 45.1522C165.041 47.2089 162.252 48.3643 159.343 48.3643Z" stroke="black" stroke-miterlimit="10" stroke-width="0.5"/>
<path d="M95.1133 1.35331C46.7495 -2.99686 7.99992 33.2667 3.72284 85.7245C2.74849 99.2434 4.97852 112.801 10.2317 125.296C15.485 137.791 23.6131 148.869 33.9549 157.63C33.989 166.643 31.37 175.466 26.4243 183C36.8981 182.232 46.8513 178.133 54.8283 171.302C64.5951 175.972 75.1185 178.856 85.9011 179.82C134.265 184.17 173.344 143.264 178.388 95.9967C183.799 45.1474 143.441 5.66691 95.1133 1.35331Z" fill="#FA0CF7"/>
<path d="M110.65 55.7122C104.61 55.705 98.7033 57.4899 93.678 60.8412C88.6527 64.1925 84.7346 68.9593 82.4197 74.5384C80.1049 80.1175 79.4974 86.2579 80.674 92.1824C81.8506 98.107 84.7586 103.549 89.0297 107.82C93.3008 112.091 98.743 114.999 104.668 116.176C110.592 117.353 116.733 116.745 122.312 114.43C127.891 112.115 132.658 108.197 136.009 103.172C139.36 98.1467 141.145 92.2401 141.138 86.1999C141.128 78.117 137.913 70.3679 132.198 64.6525C126.482 58.937 118.733 55.7219 110.65 55.7122Z" fill="#E5BDBE"/>
<path d="M167.312 45.0743C165.789 46.6396 163.833 47.7145 161.695 48.161C159.557 48.6076 157.334 48.4056 155.312 47.5809C153.289 46.7562 151.559 45.3464 150.343 43.5321C149.127 41.7178 148.48 39.5817 148.486 37.3976C148.491 35.5138 148.982 33.6631 149.91 32.024C150.839 30.3849 152.174 29.0125 153.787 28.0392C146.808 21.2916 138.815 15.6792 130.098 11.4063H110.577C86.121 11.4063 83.2331 11.4062 73.5822 11.918C67.7872 11.9931 62.0489 13.0691 56.6203 15.0984C52.6309 16.4902 49.007 18.7644 46.0189 21.7516C42.9669 24.6935 40.6286 28.2948 39.1829 32.2797C37.171 37.7118 36.1076 43.4493 36.0392 49.2417C35.6005 58.8925 35.4907 61.7804 35.4907 86.1998C35.4907 110.619 35.4908 113.544 36.0392 123.194C36.1076 128.987 37.171 134.724 39.1829 140.156C40.6286 144.141 42.9669 147.743 46.0189 150.685C48.9674 153.729 52.5668 156.066 56.5471 157.521C61.9757 159.55 67.7142 160.626 73.5093 160.701C83.1601 161.14 86.048 161.213 110.504 161.213C132.036 161.213 136.825 161.213 144.282 160.811C163.488 144.355 175.645 121.155 178.243 95.9968C180.307 78.2821 176.464 60.3815 167.312 45.0743ZM110.65 133.211C101.351 133.218 92.2581 130.467 84.5223 125.306C76.7865 120.145 70.7554 112.805 67.1916 104.215C63.6278 95.626 62.6916 86.1725 64.5014 77.0508C66.3112 67.9292 70.7856 59.5492 77.3588 52.9709C83.932 46.3927 92.3086 41.9117 101.429 40.0948C110.549 38.2779 120.003 39.2067 128.596 42.7638C137.188 46.3209 144.532 52.3464 149.7 60.0781C154.867 67.8098 157.625 76.9003 157.625 86.1998C157.63 92.3716 156.418 98.4839 154.06 104.187C151.701 109.891 148.242 115.074 143.879 119.439C139.517 123.805 134.337 127.269 128.635 129.632C122.934 131.995 116.822 133.211 110.65 133.211Z" fill="#E5BDBE"/>
<path d="M110.65 55.7122C104.61 55.705 98.7033 57.4899 93.678 60.8412C88.6527 64.1925 84.7346 68.9593 82.4197 74.5384C80.1049 80.1175 79.4974 86.2579 80.674 92.1824C81.8506 98.107 84.7586 103.549 89.0297 107.82C93.3008 112.091 98.743 114.999 104.668 116.176C110.592 117.353 116.733 116.745 122.312 114.43C127.891 112.115 132.658 108.197 136.009 103.172C139.36 98.1467 141.145 92.2401 141.138 86.1999C141.128 78.117 137.913 70.3679 132.198 64.6525C126.482 58.937 118.733 55.7219 110.65 55.7122Z" fill="#E5BDBE"/>
<path d="M110.65 55.7122C104.611 55.7049 98.7063 57.489 93.6817 60.8386C88.6572 64.1883 84.7392 68.953 82.4233 74.5299C80.1073 80.1069 79.4977 86.2454 80.6713 92.169C81.845 98.0925 84.7493 103.535 89.0167 107.807C93.2842 112.08 98.7229 114.991 104.645 116.171C110.567 117.352 116.707 116.75 122.286 114.441C127.866 112.131 132.635 108.219 135.991 103.199C139.347 98.1781 141.138 92.2751 141.138 86.2364C141.138 78.1472 137.927 70.3888 132.211 64.6654C126.494 58.9421 118.739 55.7219 110.65 55.7122Z" stroke="black" stroke-miterlimit="10" stroke-width="1.5"/>
<path d="M185.115 49.2416C185.047 43.4493 183.983 37.7118 181.971 32.2797C180.499 28.2993 178.15 24.7011 175.099 21.7515C172.149 18.761 168.563 16.4744 164.607 15.0618C159.166 13.0372 153.414 11.9734 147.609 11.918C137.958 11.4427 135.07 11.3696 110.65 11.3696C86.2307 11.3696 83.3062 11.3696 73.6554 11.918C67.8612 11.968 62.1205 13.032 56.6933 15.0618C52.6743 16.4543 49.0244 18.7418 46.0189 21.7515C42.9669 24.6934 40.6286 28.2947 39.1829 32.2797C37.171 37.7118 36.1076 43.4493 36.0392 49.2416C35.6005 58.8924 35.4907 61.7803 35.4907 86.2363C35.4907 110.692 35.4908 113.544 36.0392 123.194C36.1076 128.987 37.171 134.724 39.1829 140.156C40.6286 144.141 42.9669 147.743 46.0189 150.684C48.9674 153.729 52.5668 156.066 56.5471 157.52C61.9757 159.55 67.7142 160.626 73.5093 160.701C83.1601 161.139 86.048 161.213 110.504 161.213C134.96 161.213 137.812 161.213 147.462 160.701C153.269 160.62 159.018 159.544 164.461 157.52C168.431 156.065 172.018 153.728 174.953 150.684C178.004 147.735 180.353 144.137 181.825 140.156C183.837 134.724 184.901 128.987 184.969 123.194C185.408 113.544 185.481 110.656 185.481 86.2363C185.481 61.8169 185.554 58.929 185.115 49.2416ZM110.65 133.32C101.349 133.328 92.2551 130.576 84.5185 125.413C76.7819 120.25 70.7507 112.908 67.188 104.317C63.6253 95.725 62.6913 86.2696 64.5041 77.147C66.3169 68.0244 70.7949 59.6444 77.3717 53.0676C83.9486 46.4908 92.3285 42.0127 101.451 40.1999C110.574 38.3872 120.029 39.3212 128.621 42.8839C137.213 46.4466 144.555 52.4778 149.717 60.2143C154.88 67.9508 157.632 77.045 157.625 86.346C157.596 98.7853 152.634 110.705 143.828 119.491C135.021 128.277 123.09 133.211 110.65 133.211V133.32ZM159.343 48.3643C157.174 48.3643 155.054 47.7211 153.25 46.5161C151.447 45.311 150.041 43.5982 149.211 41.5943C148.381 39.5904 148.164 37.3853 148.587 35.258C149.01 33.1306 150.055 31.1765 151.588 29.6428C153.122 28.1091 155.076 27.0646 157.204 26.6414C159.331 26.2183 161.536 26.4355 163.54 27.2655C165.544 28.0956 167.257 29.5012 168.462 31.3047C169.667 33.1082 170.31 35.2285 170.31 37.3975C170.31 40.3061 169.155 43.0955 167.098 45.1522C165.041 47.2089 162.252 48.3643 159.343 48.3643Z" stroke="black" stroke-miterlimit="10" stroke-width="1.5"/>
</svg>