<?xml version="1.0" encoding="utf-8"?>
<svg xmlns="http://www.w3.org/2000/svg" fill="none" height="184" viewBox="0 0 191 184" width="191">
<path d="M90.445 2.34881C42.6968 -1.94597 4.44056 33.8559 0.217934 85.6459C-0.739665 98.9957 1.46757 112.383 6.66027 124.719C11.853 137.054 19.8845 147.99 30.1012 156.636C30.1349 165.534 27.5491 174.245 22.6663 181.683C33.0068 180.925 42.8334 176.878 50.709 170.134C60.3498 174.748 70.74 177.597 81.3862 178.543C129.134 182.838 167.715 142.453 172.696 95.7874C178.037 45.441 138.193 6.6075 90.445 2.34881Z" fill="#00F613"/>
<path d="M94.5588 3.17896C72.8021 5.37675 52.7284 15.8721 38.5084 32.4845C24.2883 49.0969 17.0149 70.5492 18.1996 92.3844C19.3842 114.22 28.9359 134.759 44.8698 149.735C60.8038 164.712 81.8951 172.974 103.762 172.805C110.633 172.803 117.478 171.979 124.153 170.351C150.644 156.384 169.339 127.8 172.695 96.2206C177.892 47.426 140.43 9.35045 94.5588 3.17896ZM150.68 122.278C148.695 127.836 139.167 133.105 134.547 133.647C129.524 134.507 124.368 134.173 119.497 132.672C114.875 131.246 110.333 129.571 105.891 127.655C81.891 117.297 66.1915 93.1528 65.0366 91.5649C63.8817 89.9769 55.292 78.6083 55.292 66.8428C55.2269 63.1259 55.9342 59.436 57.3692 56.0067C58.8043 52.5774 60.936 49.4835 63.629 46.9208C64.4269 46.0047 65.407 45.2651 66.5069 44.7493C67.6069 44.2335 68.8025 43.9528 70.0171 43.9253C71.6051 43.9253 73.193 43.9253 74.6005 43.9253C76.008 43.9253 78.0291 43.3839 79.978 48.0396C81.9269 52.6953 86.7631 64.5691 87.1962 65.7962C87.5805 66.4198 87.802 67.1301 87.8398 67.8617C87.8777 68.5933 87.7307 69.3227 87.4127 69.9827C86.8084 71.411 86.0067 72.7474 85.0308 73.9527C83.8037 75.3602 82.5044 77.0564 81.4217 78.1392C80.339 79.2219 78.9676 80.6294 80.3752 83.0114C84.028 89.162 88.5635 94.7434 93.837 99.577C99.518 104.594 106.011 108.609 113.037 111.451C115.419 112.642 116.646 112.425 118.234 110.837C119.822 109.249 124.189 103.872 125.777 101.454C127.365 99.0356 128.989 99.4687 131.191 100.263C133.392 101.057 145.122 106.831 147.504 108.058C149.886 109.285 151.51 109.827 152.088 110.837C152.781 114.717 152.291 118.716 150.68 122.314V122.278Z" fill="#98E891"/>
<path d="M164.074 27.3963C149.282 12.6398 129.578 3.84046 108.717 2.67485C87.8555 1.50925 67.2941 8.05882 50.9504 21.0757C34.6068 34.0926 23.6229 52.6671 20.0915 73.2604C16.5601 93.8537 20.7279 115.026 31.801 132.745L33.8221 135.957L25.2324 167.356L57.4615 158.91L60.5653 160.751C73.6732 168.527 88.6335 172.628 103.874 172.625C120.705 172.637 137.162 167.656 151.161 158.312C165.161 148.968 176.073 135.681 182.518 120.133C188.963 104.584 190.651 87.4736 187.368 70.9658C184.084 54.458 175.978 39.2952 164.074 27.3963Z" stroke="black" stroke-miterlimit="10" stroke-width="1.49655"/>
<path clip-rule="evenodd" d="M152.085 110.152C151.507 109.177 149.883 108.564 147.501 107.373C145.119 106.182 133.354 100.407 131.188 99.577C129.023 98.7469 127.579 98.386 125.775 100.804C123.97 103.222 119.603 108.564 118.232 110.152C116.86 111.739 115.417 111.956 113.035 110.765C105.991 107.958 99.4923 103.939 93.8342 98.8912C88.5948 94.0634 84.1061 88.4799 80.5167 82.3256C79.1092 79.9437 80.5166 78.7166 81.5632 77.4534C82.6099 76.1902 83.9452 74.6744 85.1723 73.2669C86.156 72.067 86.9587 70.7295 87.5544 69.2969C87.8724 68.6369 88.0192 67.9076 87.9814 67.176C87.9435 66.4444 87.7223 65.7341 87.3379 65.1104C86.7605 63.9194 81.9604 52.1539 80.1197 47.3538C78.2791 42.5538 76.222 43.3478 74.7423 43.2395H70.1586C68.9457 43.2757 67.7529 43.5602 66.6542 44.0755C65.5555 44.5907 64.574 45.3257 63.7705 46.235C61.081 48.8004 58.9518 51.8948 57.5169 55.3235C56.0821 58.7522 55.3728 62.4408 55.4335 66.157C55.4335 77.9226 63.9871 89.2911 65.1781 90.8791C66.3691 92.4671 82.0325 116.612 106.033 126.97C111.735 129.424 116.175 130.904 119.639 132.022C124.516 133.494 129.667 133.815 134.689 132.961C139.309 132.275 148.837 127.186 150.822 121.592C152.376 117.99 152.816 114.006 152.085 110.152Z" fill-rule="evenodd" stroke="black" stroke-miterlimit="10" stroke-width="1.49655"/>
</svg>