<svg width="292" height="299" viewBox="0 0 292 299" fill="none" xmlns="http://www.w3.org/2000/svg">
<g clip-path="url(#clip0_133_254)">
<path d="M139.941 298V8H152.061V298H139.941Z" fill="#0A102F" stroke="#0A102F" stroke-width="2"/>
<path d="M1 159.059V146.939H291V159.059H1Z" fill="#0A102F" stroke="#0A102F" stroke-width="2"/>
<path d="M244.217 259.805L39.1582 54.7458L47.7282 46.1758L252.787 251.235L244.217 259.805Z" fill="#0A102F" stroke="#0A102F" stroke-width="2"/>
<path d="M47.7282 259.8L39.1582 251.23L244.217 46.1719L252.787 54.7419L47.7282 259.8Z" fill="#0A102F" stroke="#0A102F" stroke-width="2"/>
<path d="M278.04 213.368L9.47119 103.951L14.044 92.7266L282.613 202.144L278.04 213.368Z" fill="#0A102F" stroke="#0A102F" stroke-width="2"/>
<path d="M96.9493 289.632L85.7251 285.06L195.142 16.4902L206.367 21.0631L96.9493 289.632Z" fill="#0A102F" stroke="#0A102F" stroke-width="2"/>
<path d="M13.8464 212.746L9.3208 201.503L278.354 93.2168L282.879 104.46L13.8464 212.746Z" fill="#0A102F" stroke="#0A102F" stroke-width="2"/>
<path d="M194.413 289.883L86.1567 20.8506L97.4003 16.3262L205.657 285.359L194.413 289.883Z" fill="#0A102F" stroke="#0A102F" stroke-width="2"/>
<path d="M153.061 0H138.941V292H153.061V0Z" fill="#9E1A01"/>
<path d="M292 138.939H0V153.059H292V138.939Z" fill="#9E1A01"/>
<path d="M47.7283 37.7617L37.7441 47.7459L244.217 254.219L254.202 244.235L47.7283 37.7617Z" fill="#9E1A01"/>
<path d="M244.217 37.7578L37.7441 244.231L47.7283 254.216L254.202 47.742L244.217 37.7578Z" fill="#9E1A01"/>
<path d="M13.4954 84.4219L8.16797 97.4983L278.589 207.67L283.917 194.593L13.4954 84.4219Z" fill="#9E1A01"/>
<path d="M194.594 8.18555L84.4219 278.606L97.4983 283.934L207.67 13.513L194.594 8.18555Z" fill="#9E1A01"/>
<path d="M278.908 84.916L8.01953 193.949L13.2919 207.048L284.18 98.0151L278.908 84.916Z" fill="#9E1A01"/>
<path d="M97.9545 8.02539L84.8555 13.2964L193.859 284.184L206.958 278.913L97.9545 8.02539Z" fill="#9E1A01"/>
</g>
<defs>
<clipPath id="clip0_133_254">
<rect width="292" height="299" fill="white"/>
</clipPath>
</defs>
</svg>
